<?xml version="1.0" standalone="no"?>
<!DOCTYPE svg PUBLIC "-//W3C//DTD SVG 20010904//EN"
 "http://www.w3.org/TR/2001/REC-SVG-20010904/DTD/svg10.dtd">
<svg version="1.0" xmlns="http://www.w3.org/2000/svg"
 width="600.000000pt" height="600.000000pt" viewBox="0 0 600.000000 600.000000"
 preserveAspectRatio="xMidYMid meet">

<g transform="translate(0.000000,600.000000) scale(0.100000,-0.100000)"
fill="#000000" stroke="none">
<path d="M961 4408 c1 -722 5 -1324 9 -1338 4 -14 8 -19 9 -11 1 7 7 11 16 7
9 -3 15 0 15 10 0 8 4 13 9 10 13 -8 28 14 35 54 4 19 11 116 16 215 10 198
14 225 39 225 26 0 32 -10 20 -32 -7 -13 -7 -23 0 -32 6 -7 8 -16 4 -19 -3 -4
-2 -7 3 -7 5 0 10 -39 11 -86 3 -78 5 -88 28 -106 17 -13 25 -29 25 -49 0 -27
2 -29 21 -19 19 11 20 10 9 -11 -11 -20 -10 -21 6 -15 11 4 34 10 52 13 35 6
48 32 40 78 -3 14 -2 25 3 25 4 0 7 18 6 41 -1 30 3 43 17 51 10 6 26 18 36
28 9 9 43 30 74 45 53 26 58 26 75 11 20 -18 31 -12 31 16 0 10 5 18 11 18 8
0 8 4 0 14 -9 11 -3 19 31 39 l43 26 -32 -3 c-41 -4 -42 6 -4 33 37 27 61 27
31 1 -14 -12 -18 -20 -10 -20 20 0 59 40 54 55 -4 11 64 75 80 75 14 0 113 83
131 110 27 40 47 48 168 66 46 6 47 8 53 46 4 21 11 41 15 44 5 3 9 16 9 29 0
35 21 75 39 76 9 0 11 3 5 5 -16 7 49 140 88 181 29 30 32 31 45 15 8 -9 12
-12 9 -6 -3 7 1 17 9 24 8 7 15 22 15 33 0 20 0 20 21 1 17 -16 22 -16 29 -4
6 8 10 20 10 26 0 17 -43 25 -53 11 -13 -18 -1 94 14 126 7 15 19 27 28 27 14
1 14 2 -1 11 -9 5 -15 16 -12 24 4 8 10 13 15 10 10 -7 32 32 25 44 -3 5 24
24 60 42 35 18 74 44 86 56 12 13 27 23 33 23 6 0 24 14 39 30 24 28 28 29 43
15 11 -12 19 -13 26 -6 14 14 30 14 22 2 -7 -12 45 -62 57 -55 4 3 8 1 8 -5 0
-5 12 -5 30 2 17 6 30 18 30 27 0 9 13 23 29 33 35 20 55 67 47 107 -3 16 -9
44 -12 61 -5 23 -3 30 5 25 7 -5 11 3 11 23 0 42 67 108 118 116 21 3 52 13
70 20 18 8 50 18 71 21 33 5 41 3 58 -20 12 -14 26 -26 32 -26 18 0 60 -52 53
-68 -3 -10 -1 -13 6 -8 9 5 12 -8 12 -48 0 -30 -4 -56 -10 -58 -5 -1 -10 -29
-11 -60 -1 -32 -6 -58 -11 -58 -4 0 -8 -26 -9 -57 0 -32 -3 -52 -6 -44 -9 24
-29 -48 -32 -115 -2 -57 0 -64 25 -83 33 -26 40 -26 88 -1 22 10 44 16 50 12
6 -3 19 -5 29 -4 9 2 17 -2 17 -7 0 -6 16 -11 35 -11 19 0 35 -4 35 -10 0 -5
-4 -10 -10 -10 -12 0 -13 -37 -1 -44 10 -7 51 27 51 42 0 5 9 12 20 15 14 4
18 10 14 24 -6 14 -4 16 6 6 9 -8 20 -9 37 -2 14 5 28 7 33 4 4 -2 19 7 34 22
14 14 26 20 26 14 0 -8 4 -8 14 1 8 7 12 16 9 21 -2 4 1 7 6 7 6 0 11 -4 11
-10 0 -13 37 -13 43 0 3 6 4 5 3 -2 -1 -7 -16 -15 -32 -18 l-29 -6 28 -10 28
-9 -30 -32 c-16 -17 -31 -27 -33 -22 -2 5 -13 1 -25 -11 -12 -11 -27 -20 -33
-20 -5 0 -10 -4 -10 -9 0 -5 -11 -12 -25 -15 -14 -4 -23 -11 -20 -16 3 -5 0
-12 -5 -15 -7 -5 -5 -12 7 -21 10 -7 14 -13 8 -13 -17 0 -45 26 -37 34 4 4 -6
5 -23 1 -16 -4 -32 -12 -33 -17 -2 -5 -8 -7 -12 -4 -5 3 -18 0 -29 -7 -15 -9
-18 -19 -14 -42 3 -17 11 -36 18 -41 7 -6 16 -26 20 -45 4 -19 11 -41 16 -50
4 -8 10 -27 14 -42 3 -15 18 -39 33 -53 25 -24 32 -25 83 -20 76 9 130 -9 179
-59 22 -22 40 -44 40 -48 0 -4 9 -8 20 -8 18 0 48 -10 97 -33 21 -9 21 -11 6
-51 -9 -22 -30 -56 -47 -73 -52 -54 -66 -72 -66 -86 0 -6 -8 -25 -18 -42 -25
-40 -35 -82 -21 -87 17 -6 51 -108 59 -178 6 -61 11 -71 78 -159 39 -52 69
-98 66 -102 -7 -11 18 -59 28 -53 4 3 6 10 3 15 -3 5 1 6 9 3 12 -5 14 3 10
48 -5 48 -2 61 34 129 22 42 45 102 52 134 7 34 28 82 51 118 21 33 39 69 39
79 0 11 7 26 15 34 20 20 19 35 -1 27 -14 -5 -15 -1 -9 28 12 60 16 68 30 63
18 -7 29 14 16 30 -8 9 -4 19 14 36 29 27 30 36 11 104 -8 28 -19 89 -25 136
-12 104 -67 243 -111 281 -17 14 -30 33 -30 42 0 9 22 37 49 62 40 37 49 52
49 80 0 18 3 38 6 43 3 6 1 12 -6 14 -7 3 -9 11 -3 24 14 32 17 47 19 85 1 43
14 60 80 104 67 44 136 69 136 48 0 -11 4 -11 20 -3 13 7 20 21 20 39 0 24 3
28 20 24 18 -5 20 0 22 63 1 38 3 80 4 94 1 14 3 51 3 83 1 50 4 60 21 64 16
4 20 14 20 43 0 31 6 44 33 65 17 15 34 39 37 54 4 18 13 27 28 29 13 2 26 10
29 18 3 8 9 12 13 9 4 -2 10 17 14 43 3 26 12 57 20 67 7 11 16 32 19 46 6 24
58 58 80 51 4 -1 7 5 7 13 0 21 28 19 33 -2 4 -14 5 -12 6 5 l1 22 -2040 0
-2040 0 1 -1312z m2845 1087 c19 -8 41 -12 49 -8 23 8 48 -16 34 -33 -16 -19
-3 -32 39 -39 65 -12 72 -15 72 -41 0 -39 -24 -154 -32 -154 -4 0 -10 -16 -14
-35 -3 -20 -11 -41 -18 -48 -6 -7 -24 -31 -40 -55 -16 -24 -43 -50 -59 -59
-29 -15 -129 -25 -154 -16 -7 3 -29 26 -48 53 -33 45 -37 47 -92 53 -60 5
-148 44 -148 65 0 6 -10 19 -22 27 -18 13 -21 20 -13 40 5 14 6 25 1 25 -17 0
-4 45 27 95 60 98 118 131 237 134 44 1 81 4 84 7 9 9 63 3 97 -11z m-265
-462 c13 -16 12 -17 -3 -4 -17 13 -22 21 -14 21 2 0 10 -8 17 -17z m-680 -156
c-10 -9 -11 -8 -5 6 3 10 9 15 12 12 3 -3 0 -11 -7 -18z m779 -237 c0 -5 -2
-10 -4 -10 -3 0 -8 5 -11 10 -3 6 -1 10 4 10 6 0 11 -4 11 -10z m-130 -28 c0
-4 -9 -13 -21 -20 -19 -12 -19 -11 -9 8 10 19 30 28 30 12z m110 -36 c0 -3 -4
-8 -10 -11 -5 -3 -10 -1 -10 4 0 6 5 11 10 11 6 0 10 -2 10 -4z m140 -153 c0
-7 -5 -13 -11 -13 -5 0 -8 4 -4 9 3 5 1 12 -5 16 -6 4 -7 11 -4 17 7 11 24 -9
24 -29z m65 -283 c3 -5 1 -10 -4 -10 -6 0 -11 5 -11 10 0 6 2 10 4 10 3 0 8
-4 11 -10z m-2645 -660 c0 -5 -5 -10 -11 -10 -5 0 -7 5 -4 10 3 6 8 10 11 10
2 0 4 -4 4 -10z m60 -210 c0 -12 22 -9 32 5 5 6 8 3 8 -6 0 -25 -26 -30 -46
-8 -10 11 -12 19 -6 19 7 0 12 -4 12 -10z"/>
<path d="M5012 5348 c-7 -7 -12 -18 -12 -25 0 -8 -7 -16 -15 -19 -19 -8 -22
-113 -2 -115 62 -8 65 -2 66 99 1 73 -8 89 -37 60z"/>
<path d="M5030 4849 c0 -5 -4 -7 -10 -4 -5 3 -10 -1 -10 -10 0 -10 5 -14 13
-9 6 4 2 -3 -10 -15 -13 -12 -23 -25 -23 -30 0 -4 -9 -17 -21 -30 -12 -12 -18
-25 -15 -28 3 -4 -6 -14 -21 -24 -19 -13 -31 -15 -39 -8 -9 7 -19 7 -34 -1
-12 -6 -39 -12 -61 -12 -35 0 -40 -3 -36 -19 3 -11 1 -19 -3 -19 -5 0 -14 -16
-21 -35 -10 -26 -17 -34 -30 -30 -10 3 -20 1 -24 -5 -3 -5 -16 -10 -27 -10
-12 0 -29 -7 -39 -16 -14 -13 -16 -21 -8 -42 8 -21 7 -29 -6 -38 -13 -10 -14
-17 -6 -33 14 -26 14 -44 0 -35 -18 11 -2 -43 23 -77 12 -16 25 -29 28 -29 3
0 17 -10 30 -22 14 -13 28 -23 31 -23 4 0 11 -4 16 -9 5 -5 3 -6 -4 -2 -7 4
-13 2 -13 -3 0 -6 8 -11 18 -11 10 0 23 -5 30 -12 7 -7 12 -9 12 -4 0 4 7 0
16 -8 9 -9 13 -24 9 -35 -3 -11 -1 -22 5 -26 5 -3 10 1 10 9 0 9 7 16 15 16 8
0 15 -4 15 -10 0 -5 13 -10 29 -10 16 0 36 -7 44 -15 8 -8 17 -11 21 -8 3 4 6
-2 6 -13 0 -16 2 -17 10 -4 7 10 10 11 10 2 0 -14 60 -79 61 -66 1 5 4 -2 8
-16 8 -28 22 427 21 678 -1 93 -5 162 -11 162 -5 0 -9 -5 -9 -11z m-35 -407
c-3 -3 -11 0 -18 7 -9 10 -8 11 6 5 10 -3 15 -9 12 -12z"/>
<path d="M3310 4806 c0 -8 -9 -18 -20 -21 -11 -3 -20 -14 -20 -23 0 -15 2 -15
10 -2 8 12 10 9 10 -13 0 -19 -4 -26 -12 -21 -7 4 -8 3 -4 -5 12 -19 26 -2 26
30 0 18 4 28 10 24 6 -4 10 5 10 19 0 14 -2 26 -5 26 -3 0 -5 -6 -5 -14z"/>
<path d="M2830 4215 c0 -8 2 -15 4 -15 2 0 6 7 10 15 3 8 1 15 -4 15 -6 0 -10
-7 -10 -15z"/>
<path d="M3450 4127 c0 -30 -34 -92 -51 -93 -8 -1 -20 -2 -26 -3 -7 0 -13 -8
-13 -17 0 -8 -5 -12 -10 -9 -13 8 -24 -20 -14 -37 11 -17 13 -48 3 -48 -4 0
-9 5 -11 11 -5 14 -67 21 -69 8 -1 -5 -2 -13 -3 -18 0 -5 -5 -13 -10 -18 -5
-5 -6 -3 -2 5 4 6 3 12 -2 12 -5 0 -12 -9 -15 -20 -4 -17 -2 -20 14 -15 32 11
39 -4 13 -30 -32 -32 -30 -51 6 -63 32 -12 58 -59 68 -127 6 -43 40 -105 58
-105 16 0 54 -44 54 -62 0 -9 9 -19 19 -23 11 -3 23 -14 26 -24 3 -10 15 -27
26 -37 20 -18 21 -18 37 1 10 11 30 27 46 35 34 17 115 90 101 90 -6 0 -2 5 8
11 22 13 58 82 49 96 -8 12 -42 9 -51 -4 -3 -5 -17 -10 -30 -10 -13 -1 -27 -6
-30 -11 -3 -5 -19 -11 -34 -14 -30 -6 -36 1 -41 47 -2 15 -7 30 -13 33 -6 4
-14 17 -17 30 -4 12 -13 21 -19 20 -23 -4 -76 32 -91 63 -11 23 -13 36 -5 50
8 15 5 26 -11 48 -22 32 -26 51 -9 51 6 0 24 14 40 32 l30 31 15 -21 c22 -32
38 -28 30 9 -6 30 14 66 28 52 3 -4 6 -1 6 5 0 7 -6 12 -12 12 -23 0 -41 18
-44 42 -1 12 -3 26 -3 31 -1 4 -10 7 -21 7 -14 0 -20 -7 -20 -23z"/>
<path d="M2715 4090 c-3 -5 -1 -10 4 -10 6 0 11 5 11 10 0 6 -2 10 -4 10 -3 0
-8 -4 -11 -10z"/>
<path d="M2700 3988 c0 -4 4 -8 9 -8 6 0 12 4 15 8 3 5 -1 9 -9 9 -8 0 -15 -4
-15 -9z"/>
<path d="M3498 3823 c-35 -9 -13 -30 25 -24 4 0 6 -5 5 -11 -2 -8 6 -13 19
-12 12 0 22 -2 21 -5 0 -3 0 -16 1 -28 2 -39 18 -25 17 14 -1 26 -6 37 -18 39
-10 1 -25 9 -34 18 -8 9 -16 15 -17 15 -1 -1 -10 -3 -19 -6z"/>
<path d="M3455 3810 c-3 -5 -1 -10 4 -10 6 0 11 5 11 10 0 6 -2 10 -4 10 -3 0
-8 -4 -11 -10z"/>
<path d="M4691 3617 c-9 -12 -8 -16 6 -21 12 -5 14 -9 6 -14 -9 -5 -9 -19 -3
-47 15 -65 12 -155 -5 -161 -10 -4 -15 -20 -15 -44 0 -43 -33 -124 -63 -157
-26 -29 -19 -29 34 2 27 15 60 25 85 25 32 0 43 4 47 19 2 10 1 25 -4 32 -4 8
-1 18 9 27 12 10 13 12 2 7 -8 -4 -6 1 4 9 19 16 19 16 -2 16 -20 0 -22 5 -23
53 -1 60 -7 201 -11 237 -2 19 -10 26 -29 28 -14 2 -31 -3 -38 -11z"/>
<path d="M1610 3540 c-10 -6 -11 -10 -2 -10 6 0 12 -5 12 -11 0 -23 27 -38 85
-45 l30 -4 -33 30 c-18 16 -42 30 -52 30 -10 0 -20 4 -22 10 -2 6 -8 6 -18 0z"/>
<path d="M1507 3493 c-4 -3 -7 -20 -6 -37 0 -17 3 -24 6 -16 3 8 11 18 17 22
7 5 7 8 -3 8 -7 0 -11 6 -7 15 6 16 3 19 -7 8z"/>
<path d="M3277 3484 c-4 -4 -7 -52 -7 -107 0 -86 -2 -98 -16 -93 -9 3 -20 3
-26 0 -15 -10 -78 -12 -78 -3 0 12 -44 -3 -57 -20 -7 -9 -13 -11 -13 -6 -1 19
-20 -20 -20 -42 0 -14 -9 -24 -29 -31 -16 -6 -32 -19 -36 -31 -3 -11 -15 -23
-25 -26 -11 -4 -31 -26 -45 -50 -24 -40 -29 -43 -83 -51 -31 -5 -62 -8 -69 -7
-6 0 -9 -6 -6 -15 4 -9 2 -13 -3 -9 -12 7 -150 -57 -156 -73 -2 -6 -13 -2 -26
11 -15 13 -32 19 -47 17 -16 -4 -22 -1 -18 9 4 9 -3 13 -22 13 -21 0 -26 -4
-21 -16 3 -9 6 -31 6 -50 0 -28 4 -34 21 -34 19 0 90 -45 97 -63 2 -4 8 -5 13
-1 5 3 9 -14 10 -38 1 -105 9 -167 24 -206 10 -23 21 -42 25 -42 5 0 17 -19
29 -43 11 -23 41 -64 66 -90 25 -26 45 -54 45 -61 0 -8 6 -19 14 -25 8 -7 17
-31 21 -54 14 -90 17 -106 24 -105 33 4 81 -4 76 -13 -4 -6 4 -9 22 -7 21 2
27 -1 25 -13 -1 -9 8 -21 21 -26 21 -10 24 -17 21 -58 -2 -26 4 -74 13 -108 9
-34 19 -98 23 -142 5 -68 8 -75 14 -48 5 18 12 30 17 27 5 -3 7 -10 4 -15 -4
-5 2 -9 12 -9 11 0 24 -5 30 -11 7 -7 23 -7 53 2 48 15 60 6 60 -48 0 -44 12
-41 38 10 12 23 25 41 29 39 4 -2 9 2 12 9 2 7 -1 9 -8 5 -13 -8 -14 7 -5 54
5 22 9 28 15 18 6 -8 9 -2 9 20 0 20 4 31 10 27 6 -3 10 4 10 17 0 33 14 50
51 62 27 9 35 18 42 49 5 20 14 38 20 38 19 2 30 4 60 13 23 7 27 14 27 42 0
32 2 34 28 28 15 -4 39 -13 54 -20 15 -8 39 -11 57 -8 29 6 30 8 27 58 -2 28
-6 62 -9 76 -4 14 -8 52 -8 84 -1 40 -7 65 -18 76 -19 21 -80 32 -182 35 -105
3 -135 21 -149 91 -14 67 -26 182 -24 220 1 16 3 36 3 45 1 11 9 15 26 14 17
-2 26 3 30 16 4 10 10 19 14 19 5 0 11 14 15 31 5 27 98 158 118 167 5 2 8 10
8 17 0 7 14 28 32 46 25 28 32 43 32 79 1 37 -2 45 -16 44 -21 -2 -22 1 -8 26
8 15 7 18 -4 14 -9 -3 -16 4 -21 23 -8 33 -34 65 -46 57 -5 -3 -17 8 -27 25
-9 17 -23 31 -29 31 -7 0 -13 7 -13 16 0 8 -5 12 -11 8 -8 -5 -8 -1 0 14 15
29 14 32 -10 32 -12 0 -32 11 -44 24 -19 21 -28 23 -58 16 -20 -4 -39 -4 -44
1 -5 5 -12 6 -16 3z"/>
<path d="M3686 3472 c-2 -4 -1 -14 4 -22 4 -7 6 -18 4 -25 -3 -6 4 -19 15 -29
11 -10 17 -25 14 -34 -3 -10 7 3 22 28 16 25 35 53 44 64 16 18 15 18 -15 3
-30 -15 -33 -15 -54 3 -26 23 -27 23 -34 12z"/>
<path d="M5034 3150 c0 -96 2 -136 3 -87 2 48 2 126 0 175 -1 48 -3 8 -3 -88z"/>
<path d="M1441 3274 c0 -11 3 -14 6 -6 3 7 2 16 -1 19 -3 4 -6 -2 -5 -13z"/>
<path d="M4996 3238 c-13 -64 -15 -107 -5 -141 18 -65 29 -41 29 63 0 59 -4
100 -10 100 -5 0 -12 -10 -14 -22z"/>
<path d="M4195 3230 c3 -5 8 -10 11 -10 2 0 4 5 4 10 0 6 -5 10 -11 10 -5 0
-7 -4 -4 -10z"/>
<path d="M3649 3190 c-19 -12 7 -40 37 -40 19 0 24 5 24 24 0 18 -5 24 -24 24
-13 0 -30 -4 -37 -8z"/>
<path d="M4795 3191 c-3 -5 -1 -12 5 -16 5 -3 10 1 10 9 0 18 -6 21 -15 7z"/>
<path d="M4569 3123 c-13 -16 -12 -17 4 -4 16 13 21 21 13 21 -2 0 -10 -8 -17
-17z"/>
<path d="M2420 3061 c0 -6 -26 -9 -57 -8 l-58 2 -5 -60 c-6 -69 7 -95 46 -87
13 2 22 7 19 11 -2 4 3 20 11 35 7 16 14 36 14 45 1 14 2 14 14 -1 14 -20 46
-24 46 -7 0 5 -6 7 -12 3 -10 -6 -10 -4 0 8 12 14 10 17 -15 21 l-28 4 27 2
c21 1 25 5 21 21 -5 20 -23 28 -23 11z"/>
<path d="M2437 2883 c-4 -3 -7 -11 -7 -17 0 -6 5 -5 12 2 6 6 9 14 7 17 -3 3
-9 2 -12 -2z"/>
<path d="M5032 2820 c0 -14 2 -19 5 -12 2 6 2 18 0 25 -3 6 -5 1 -5 -13z"/>
<path d="M2440 2817 c0 -8 3 -17 8 -21 4 -4 12 -22 19 -39 9 -27 12 -28 12 -9
1 12 7 22 16 22 28 0 15 26 -20 43 -27 13 -35 14 -35 4z"/>
<path d="M2465 2703 c3 -8 5 -17 5 -19 0 -2 5 -4 10 -4 6 0 10 8 10 18 0 10
-7 19 -15 19 -10 0 -14 -6 -10 -14z"/>
<path d="M3690 2678 c-23 -34 -29 -107 -13 -146 11 -27 18 -32 36 -27 34 10
77 66 70 90 -5 17 -4 18 10 7 23 -19 32 4 13 33 -13 19 -82 65 -98 65 -2 0
-10 -10 -18 -22z"/>
<path d="M2752 2100 c0 -14 2 -19 5 -12 2 6 2 18 0 25 -3 6 -5 1 -5 -13z"/>
<path d="M5014 2103 c-40 -8 -39 -113 1 -113 7 0 16 -6 18 -12 3 -7 6 20 6 60
1 39 0 71 -1 71 -2 -1 -13 -4 -24 -6z"/>
<path d="M2670 2061 c0 -6 -13 -11 -29 -11 -26 0 -73 -15 -126 -40 -11 -6 -29
-11 -40 -13 -12 -1 -39 -13 -60 -26 -22 -13 -42 -23 -45 -22 -3 1 -7 -15 -10
-36 -4 -28 0 -45 14 -65 11 -16 24 -28 29 -28 5 0 17 -8 26 -18 9 -11 28 -22
43 -25 15 -4 33 -14 42 -22 8 -8 19 -15 25 -15 6 0 11 -6 11 -12 0 -9 3 -9 9
1 7 11 11 10 21 -6 12 -18 16 -19 93 -5 60 11 84 12 98 4 15 -10 17 -9 12 4
-3 9 -1 19 5 23 6 4 12 24 13 46 1 22 8 50 15 61 7 12 9 25 4 30 -12 12 -29
123 -24 159 3 25 2 24 -9 -8 -12 -36 -14 -37 -29 -20 -8 10 -13 24 -11 31 3 7
-3 12 -14 12 -10 0 -28 3 -40 6 -14 4 -23 2 -23 -5z"/>
<path d="M3646 2062 c-3 -5 1 -9 9 -9 8 0 12 4 9 9 -3 4 -7 8 -9 8 -2 0 -6 -4
-9 -8z"/>
<path d="M2097 2034 c-12 -12 4 -24 33 -24 16 0 32 5 36 12 4 6 3 8 -4 4 -6
-3 -13 -2 -17 4 -7 11 -38 14 -48 4z"/>
<path d="M3603 2025 c0 -8 7 -15 15 -15 7 0 12 5 10 12 -6 18 -25 21 -25 3z"/>
<path d="M4961 2014 c0 -11 3 -14 6 -6 3 7 2 16 -1 19 -3 4 -6 -2 -5 -13z"/>
<path d="M3842 1970 c-6 -11 -12 -26 -12 -34 0 -20 -27 -27 -41 -10 -8 10 -15
12 -23 4 -5 -5 -19 -10 -29 -10 -16 0 -19 -6 -15 -39 3 -32 0 -42 -17 -50 -11
-5 -15 -10 -8 -10 8 -1 10 -13 6 -36 -5 -31 -3 -35 15 -35 11 0 28 -7 36 -16
12 -12 16 -12 16 -2 0 8 3 9 8 3 12 -17 35 -17 29 0 -5 10 0 15 13 15 12 0 17
-5 14 -14 -3 -8 -1 -17 5 -21 6 -3 11 -1 11 4 0 6 7 11 16 11 8 0 13 4 9 9 -3
5 -1 12 4 15 5 4 11 -2 14 -11 2 -10 4 14 4 52 0 39 -4 76 -9 82 -6 7 -8 22
-5 33 3 11 1 23 -4 26 -5 3 -9 16 -9 30 0 29 -11 31 -28 4z"/>
<path d="M3534 1923 c3 -17 67 -86 73 -79 3 2 -3 20 -12 39 -17 37 -65 69 -61
40z"/>
<path d="M1720 1895 c0 -8 9 -15 20 -15 11 0 20 7 20 15 0 8 -9 15 -20 15 -11
0 -20 -7 -20 -15z"/>
<path d="M3570 1833 c0 -5 12 -19 25 -32 18 -16 25 -19 25 -9 0 8 -8 22 -18
31 -20 18 -32 22 -32 10z"/>
<path d="M1738 1803 c7 -3 16 -2 19 1 4 3 -2 6 -13 5 -11 0 -14 -3 -6 -6z"/>
<path d="M1631 1784 c0 -11 3 -14 6 -6 3 7 2 16 -1 19 -3 4 -6 -2 -5 -13z"/>
<path d="M1715 1770 c-10 -11 -23 -20 -29 -19 -25 3 -36 -2 -36 -16 0 -8 7
-15 15 -15 8 0 15 -7 15 -15 0 -8 -4 -15 -10 -15 -5 0 -10 -8 -10 -17 0 -13 3
-14 12 -5 14 14 62 16 53 2 -3 -5 -15 -10 -26 -10 -10 0 -19 -4 -19 -10 0 -23
43 -8 79 28 29 28 37 42 30 53 -5 8 -9 25 -10 39 l-1 25 -8 -25 c-8 -24 -8
-24 -9 -2 -1 27 -22 28 -46 2z"/>
<path d="M4633 1736 c7 -17 -27 -51 -42 -42 -5 3 -17 -17 -26 -44 -13 -39 -14
-58 -7 -78 6 -15 13 -42 16 -60 3 -18 13 -40 21 -48 16 -16 11 -39 -6 -28 -6
3 -13 -3 -16 -15 -3 -12 -11 -21 -18 -21 -7 0 -15 -19 -19 -42 -5 -29 -10 -38
-15 -29 -6 9 -11 10 -15 2 -9 -14 -26 -5 -26 15 0 8 8 14 18 14 14 0 12 4 -8
19 -13 11 -28 17 -33 14 -4 -2 -15 1 -23 8 -13 10 -17 10 -25 -2 -13 -21 -11
-29 9 -30 9 0 1 -5 -18 -11 -46 -13 -62 -28 -29 -28 14 0 31 -6 38 -12 8 -8
11 -8 8 -2 -4 7 4 14 21 17 32 6 45 -3 32 -23 -9 -13 -10 -13 -10 0 0 11 -3
12 -8 3 -4 -6 -19 -14 -32 -17 -73 -14 -90 -19 -90 -26 0 -5 6 -10 13 -13 8
-3 6 -10 -8 -21 -19 -14 -15 -15 61 -16 52 0 92 -5 110 -15 16 -8 38 -12 50
-9 12 3 25 1 29 -5 4 -8 12 -8 25 -1 14 7 19 6 24 -6 5 -14 9 -14 22 -3 18 15
144 21 144 7 0 -5 5 -6 10 -3 6 3 10 17 10 31 0 32 28 42 103 40 51 -2 59 1
73 23 16 23 17 24 30 6 12 -16 14 12 14 193 0 184 -2 211 -15 206 -8 -4 -15
-15 -15 -25 0 -17 -3 -17 -20 -7 -15 10 -22 10 -32 0 -16 -16 -45 -15 -51 1
-4 9 -7 9 -15 -1 -11 -16 -142 -18 -171 -2 -12 6 -21 8 -21 5 0 -3 -9 -1 -20
5 -11 6 -20 21 -20 35 0 31 -10 55 -22 55 -6 0 -8 -6 -5 -14z"/>
<path d="M3271 1544 c0 -11 3 -14 6 -6 3 7 2 16 -1 19 -3 4 -6 -2 -5 -13z"/>
<path d="M1951 1433 c-6 -10 -11 -13 -11 -6 0 17 -59 8 -89 -15 -60 -45 -47
-108 41 -186 l51 -45 39 21 c75 43 108 77 108 113 0 18 -6 36 -12 38 -10 4
-10 6 0 6 21 2 13 40 -13 66 -30 31 -98 35 -114 8z"/>
<path d="M3786 1311 c-4 -7 -5 -15 -2 -18 9 -9 19 4 14 18 -4 11 -6 11 -12 0z"/>
</g>
</svg>
